<svg width="56" height="12" viewBox="0 0 56 12" fill="none" xmlns="http://www.w3.org/2000/svg">
<g id="Job List" clip-path="url(#clip0_35_29)">
<path id="Vector" d="M3.18555 11.1483C2.38346 10.9752 1.67253 10.5787 1.05273 9.9589L0.929688 9.4257L1.25781 9.28898C1.78646 9.8632 2.40625 10.1731 3.11719 10.2187L3.51367 7.82609V6.705L3.58203 6.63664V3.45109C3.49089 3.27791 3.31315 3.21411 3.04883 3.25969L1.98242 3.58781L1.51758 3.05461V2.65812C2.93945 2.3938 4.37956 2.17049 5.83789 1.9882L6.23438 2.26164L6.30273 2.65812L5.97461 2.91789H4.83984L4.58008 3.05461L4.44336 3.65617L4.51172 3.72453V6.1718L4.44336 6.24015V7.56633L4.30664 8.03117V8.82414L4.04688 9.89054V10.6151L3.8418 11.08L3.18555 11.1483ZM10.0352 11.162C9.61589 11.1073 9.24674 10.9433 8.92773 10.6698L8.44922 9.84953V8.19523C8.67708 7.18351 9.16016 6.26294 9.89844 5.43351C10.2174 5.25122 10.582 5.16008 10.9922 5.16008L11.6895 5.57023C12.2819 6.39966 12.651 7.32023 12.7969 8.33195C12.651 9.20695 12.2135 9.94068 11.4844 10.5331C11.0651 10.8977 10.582 11.1073 10.0352 11.162ZM10.582 10.0546C11.138 9.72648 11.5299 9.2662 11.7578 8.67375L11.8262 8.46867V7.63469L11.2109 6.11711H10.7188L10.0352 6.81437C9.80729 7.22453 9.59766 7.66203 9.40625 8.12687V8.94719L9.33789 9.4257L9.625 10.1913L9.9668 10.328L10.582 10.0546ZM16.4336 11.1894L15.8867 10.7108V9.94523L15.8184 9.87687V9.04289L15.668 8.29094V7.32023L15.5996 7.2382V5.44719L15.668 5.37883V4.68156L15.75 4.6132V3.77922L15.8184 3.71086V3.01359L16.0918 1.2089L16.4336 1.14054L16.9941 1.49601L17.0625 2.04289L16.7891 3.21867L16.8574 3.43742L16.7207 3.9843V4.68156L16.6387 4.74992V5.5839L16.5703 5.99406H16.7891L17.7598 5.65226C18.3522 5.69784 18.8581 5.97583 19.2773 6.48625L19.5508 7.03312V8.00383C19.2773 8.97909 18.7259 9.83586 17.8965 10.5741C17.4772 10.8931 16.9896 11.0982 16.4336 11.1894ZM17.2676 9.74015C17.8691 9.13859 18.3066 8.49146 18.5801 7.79875V7.10148L18.375 6.75969L17.8281 6.55461L17.0625 6.8964C16.7344 7.22453 16.5931 7.63924 16.6387 8.14054L16.9258 9.74015L17.1992 9.80851L17.2676 9.74015ZM29.6406 11.0526L29.3809 10.8612L29.1074 10.5878V8.94719L29.1758 8.87883V7.86711L29.2441 7.79875V7.0468L29.3125 6.97844V6.03508L29.3809 5.4882L29.3125 5.1464L29.3809 4.94133L29.3125 4.87297V3.58781L29.2441 3.51945V2.7675L28.9707 1.48234L29.4355 1.34562L29.9141 1.60539L30.1191 2.49406V3.31437L30.2559 3.86125V5.28312L30.3242 5.89836L30.2559 5.96672V7.0468L30.1875 7.11515V8.00383L30.1191 8.07219V8.94719L30.0508 9.01554V9.69914L30.3242 9.83586C31.5456 9.60799 32.7031 9.22062 33.7969 8.67375L34.1934 8.81047V9.22062L33.9336 9.56242C32.5664 10.246 31.1354 10.7427 29.6406 11.0526ZM38.3633 11.1073L37.9531 10.6288V7.74406L38.0215 7.6757V6.0214L38.2266 5.74797H38.6367L38.9785 5.95304L39.1152 6.43156L38.9785 6.78703V7.60734L38.9102 7.81242L38.9785 8.08586L38.9102 8.15422V9.45304L38.8418 10.1503L38.9102 10.2187V10.9706C38.7734 11.1073 38.5911 11.1529 38.3633 11.1073ZM38.8418 4.10734C38.5228 4.06177 38.2721 3.90226 38.0898 3.62883L37.8164 2.79484L38.2949 2.58976L38.8418 2.93156L38.9785 3.49211L39.1836 3.56047L39.252 3.76554C39.2064 3.99341 39.0697 4.10734 38.8418 4.10734ZM45.1582 11.0937C44.6022 10.9569 44.1191 10.6334 43.709 10.1229L43.4355 9.64445L43.5723 9.30265L44.0508 9.2343C44.2786 9.69002 44.6022 10.0364 45.0215 10.2733H45.4316C45.8418 10.1275 46.1836 9.87232 46.457 9.50773V9.30265C45.5 8.52791 44.7207 7.66203 44.1191 6.705L44.0508 5.93937C44.2786 5.48364 44.625 5.18742 45.0898 5.0507L46.3887 4.84562C46.89 4.8912 47.3001 5.09627 47.6191 5.46086L47.6875 5.93937L47.209 6.07609L47.0723 5.80265L46.3203 5.66594L45.2266 6.14445L45.0898 6.62297L45.6367 7.52531L46.8672 8.5507C47.1862 8.91528 47.3685 9.32544 47.4141 9.78117L46.9355 10.4784C46.4342 10.9341 45.8418 11.1392 45.1582 11.0937ZM52.5547 11.2577L52.3496 11.1894L52.0762 10.5741V6.59562H51.4609L50.4219 6.93742L49.7383 6.32219V6.04875L49.9434 5.83H50.627L50.6953 5.76164H51.8027L52.1445 5.55656L52.2129 5.4882V3.71086L52.1445 3.6425V1.16789L52.0762 0.96281C52.2129 0.734945 52.3952 0.643799 52.623 0.689372L53.1699 1.03117L53.2383 1.57804L53.1016 2.12492V3.9843L53.1699 4.18937L53.1016 4.25773V5.41984L53.5801 5.55656L54.5508 5.35148L55.0977 5.62492L55.2344 6.11711L54.6875 6.39054H53.2383L53.0332 6.66398V7.75773L52.9648 7.96281L53.0332 8.03117V8.71476L52.9648 9.12492L53.0332 9.19328V9.9589L53.2383 11.2577H52.5547Z" fill="#FF8A00"/>
</g>
<defs>
<clipPath id="clip0_35_29">
<rect width="56" height="12" fill="white"/>
</clipPath>
</defs>
</svg>
