<svg width="48" height="11" viewBox="0 0 48 11" fill="none" xmlns="http://www.w3.org/2000/svg">
<g id="Message" clip-path="url(#clip0_34_12)">
<path id="Vector" d="M5.83789 10.1758L5.29102 9.69727V8.72656L5.14062 7.97461V3.99609L5.20898 3.6543L5.14062 3.24414H5.00391C4.45703 4.52018 3.97852 5.82357 3.56836 7.1543L3.1582 7.22266C2.61133 6.11979 2.24674 4.95312 2.06445 3.72266H1.85938L1.79102 3.92773V6.26562L1.70898 6.33398V7.83789L1.92773 8.93164L1.64062 9.76562L1.29883 9.83398L0.820312 9.49219L0.751953 9.42383V8.31641L0.683594 8.11133L0.751953 8.04297V6.12891L0.820312 6.06055V4.47461L0.888672 4.40625V1.38477L0.957031 1.17969L0.888672 0.701172C1.07096 0.473307 1.32161 0.404948 1.64062 0.496094L2.54297 1.24805L2.67969 1.45312V2.62891L3.1582 4.81641H3.29492C3.93294 3.22135 4.64388 1.64453 5.42773 0.0859375L5.83789 0.0175781L6.24805 0.291016L6.38477 0.769531C6.24805 1.04297 6.17969 1.31641 6.17969 1.58984V2.56055L6.11133 2.76562L6.17969 3.17578L6.11133 3.72266L6.17969 4.06445L6.11133 4.13281V5.99219L6.04297 6.26562L6.11133 6.33398V7.90625L6.17969 7.97461V8.86328L6.31641 10.0391L5.83789 10.1758ZM9.65234 10.2031C9.28776 10.1576 8.96875 9.95703 8.69531 9.60156C8.33984 9.10026 8.16211 8.5306 8.16211 7.89258V6.4707C8.19857 5.69596 8.49023 5.03971 9.03711 4.50195C9.31055 4.31966 9.62956 4.2513 9.99414 4.29688C10.7142 4.70703 11.3249 5.27214 11.8262 5.99219V6.4707C11.0514 7.1543 10.1901 7.62826 9.24219 7.89258L9.17383 7.96094V8.64453L9.44727 9.25977L9.85742 9.32812C10.8509 8.91797 11.8262 8.48503 12.7832 8.0293C12.9108 8.21159 12.9518 8.41667 12.9062 8.64453C11.9583 9.5013 10.8737 10.0208 9.65234 10.2031ZM9.99414 6.60742L10.8008 6.06055V5.85547L9.92578 5.11719C9.65234 5.33594 9.44727 5.60482 9.31055 5.92383L9.10547 6.8125L9.44727 6.88086L9.99414 6.60742ZM17.1582 10.0938C16.6022 9.95703 16.1191 9.63346 15.709 9.12305L15.4355 8.64453L15.5723 8.30273L16.0508 8.23438C16.2786 8.6901 16.6022 9.03646 17.0215 9.27344H17.4316C17.8418 9.1276 18.1836 8.8724 18.457 8.50781V8.30273C17.5 7.52799 16.7207 6.66211 16.1191 5.70508L16.0508 4.93945C16.2786 4.48372 16.625 4.1875 17.0898 4.05078L18.3887 3.8457C18.89 3.89128 19.3001 4.09635 19.6191 4.46094L19.6875 4.93945L19.209 5.07617L19.0723 4.80273L18.3203 4.66602L17.2266 5.14453L17.0898 5.62305L17.6367 6.52539L18.8672 7.55078C19.1862 7.91536 19.3685 8.32552 19.4141 8.78125L18.9355 9.47852C18.4342 9.93424 17.8418 10.1393 17.1582 10.0938ZM24.1582 10.0938C23.6022 9.95703 23.1191 9.63346 22.709 9.12305L22.4355 8.64453L22.5723 8.30273L23.0508 8.23438C23.2786 8.6901 23.6022 9.03646 24.0215 9.27344H24.4316C24.8418 9.1276 25.1836 8.8724 25.457 8.50781V8.30273C24.5 7.52799 23.7207 6.66211 23.1191 5.70508L23.0508 4.93945C23.2786 4.48372 23.625 4.1875 24.0898 4.05078L25.3887 3.8457C25.89 3.89128 26.3001 4.09635 26.6191 4.46094L26.6875 4.93945L26.209 5.07617L26.0723 4.80273L25.3203 4.66602L24.2266 5.14453L24.0898 5.62305L24.6367 6.52539L25.8672 7.55078C26.1862 7.91536 26.3685 8.32552 26.4141 8.78125L25.9355 9.47852C25.4342 9.93424 24.8418 10.1393 24.1582 10.0938ZM30.0781 10.0117L29.3945 9.47852C29.1302 9.06836 28.998 8.58984 28.998 8.04297V7.29102C29.0892 6.16081 29.5632 5.16732 30.4199 4.31055L30.7617 4.10547H31.4453C31.8919 4.19661 32.2975 4.42448 32.6621 4.78906C32.8444 5.23568 32.9583 5.73242 33.0039 6.2793V7.49609L33.4824 8.52148L33.6875 8.58984L33.9473 9.20508L33.6191 9.47852C33.2546 9.43294 32.9583 9.22786 32.7305 8.86328L32.3887 8.24805L32.1836 8.17969C31.819 8.90885 31.2995 9.51953 30.625 10.0117H30.0781ZM30.4199 8.93164C31.1947 8.11133 31.7142 7.20443 31.9785 6.21094V5.32227L31.8418 4.98047L31.377 4.91211C30.8757 5.27669 30.5111 5.75521 30.2832 6.34766L29.9414 7.42773V8.52148L30.1465 8.93164L30.3516 9L30.4199 8.93164ZM38.0078 10.9141L37.2422 10.4219V9.875L37.7891 9.82031L38.3633 10.0664C38.7005 9.68359 38.8691 9.21875 38.8691 8.67188V7.85156L38.9375 7.7832V6.51172L38.6914 6.45703C38.3542 6.79427 37.9303 6.96289 37.4199 6.96289L37.0371 6.77148L36.4082 6.07422L36.3398 5.75977V5.11719C36.4674 4.19661 36.9323 3.39453 37.7344 2.71094L38.623 2.46484C39.0423 2.5013 39.4023 2.69271 39.7031 3.03906L40.0176 4.17383V5.18555L39.8262 5.63672V8.35742L39.7578 8.54883L39.8262 8.86328C39.8262 9.61979 39.5299 10.2533 38.9375 10.7637L38.0078 10.9141ZM37.9941 5.95117C38.4134 5.65039 38.7279 5.29036 38.9375 4.87109L39.1289 3.79102L38.9375 3.28516H38.5547L37.9258 3.66797C37.543 4.29688 37.3105 4.99414 37.2285 5.75977L37.4883 6.14258H37.666L37.9941 5.95117ZM44.6523 10.2031C44.2878 10.1576 43.9688 9.95703 43.6953 9.60156C43.3398 9.10026 43.1621 8.5306 43.1621 7.89258V6.4707C43.1986 5.69596 43.4902 5.03971 44.0371 4.50195C44.3105 4.31966 44.6296 4.2513 44.9941 4.29688C45.7142 4.70703 46.3249 5.27214 46.8262 5.99219V6.4707C46.0514 7.1543 45.1901 7.62826 44.2422 7.89258L44.1738 7.96094V8.64453L44.4473 9.25977L44.8574 9.32812C45.8509 8.91797 46.8262 8.48503 47.7832 8.0293C47.9108 8.21159 47.9518 8.41667 47.9062 8.64453C46.9583 9.5013 45.8737 10.0208 44.6523 10.2031ZM44.9941 6.60742L45.8008 6.06055V5.85547L44.9258 5.11719C44.6523 5.33594 44.4473 5.60482 44.3105 5.92383L44.1055 6.8125L44.4473 6.88086L44.9941 6.60742Z" fill="#FF8A00"/>
</g>
<defs>
<clipPath id="clip0_34_12">
<rect width="48" height="11" fill="white"/>
</clipPath>
</defs>
</svg>
