<svg width="98" height="12" viewBox="0 0 98 12" fill="none" xmlns="http://www.w3.org/2000/svg">
<g id="Mission&#38;Vision" clip-path="url(#clip0_34_6)">
<path id="Vector" d="M5.83789 11.1758L5.29102 10.6973V9.72656L5.14062 8.97461V4.99609L5.20898 4.6543L5.14062 4.24414H5.00391C4.45703 5.52018 3.97852 6.82357 3.56836 8.1543L3.1582 8.22266C2.61133 7.11979 2.24674 5.95312 2.06445 4.72266H1.85938L1.79102 4.92773V7.26562L1.70898 7.33398V8.83789L1.92773 9.93164L1.64062 10.7656L1.29883 10.834L0.820312 10.4922L0.751953 10.4238V9.31641L0.683594 9.11133L0.751953 9.04297V7.12891L0.820312 7.06055V5.47461L0.888672 5.40625V2.38477L0.957031 2.17969L0.888672 1.70117C1.07096 1.47331 1.32161 1.40495 1.64062 1.49609L2.54297 2.24805L2.67969 2.45312V3.62891L3.1582 5.81641H3.29492C3.93294 4.22135 4.64388 2.64453 5.42773 1.08594L5.83789 1.01758L6.24805 1.29102L6.38477 1.76953C6.24805 2.04297 6.17969 2.31641 6.17969 2.58984V3.56055L6.11133 3.76562L6.17969 4.17578L6.11133 4.72266L6.17969 5.06445L6.11133 5.13281V6.99219L6.04297 7.26562L6.11133 7.33398V8.90625L6.17969 8.97461V9.86328L6.31641 11.0391L5.83789 11.1758ZM10.3633 11.1074L9.95312 10.6289V7.74414L10.0215 7.67578V6.02148L10.2266 5.74805H10.6367L10.9785 5.95312L11.1152 6.43164L10.9785 6.78711V7.60742L10.9102 7.8125L10.9785 8.08594L10.9102 8.1543V9.45312L10.8418 10.1504L10.9102 10.2188V10.9707C10.7734 11.1074 10.5911 11.153 10.3633 11.1074ZM10.8418 4.10742C10.5228 4.06185 10.2721 3.90234 10.0898 3.62891L9.81641 2.79492L10.2949 2.58984L10.8418 2.93164L10.9785 3.49219L11.1836 3.56055L11.252 3.76562C11.2064 3.99349 11.0697 4.10742 10.8418 4.10742ZM17.1582 11.0938C16.6022 10.957 16.1191 10.6335 15.709 10.123L15.4355 9.64453L15.5723 9.30273L16.0508 9.23438C16.2786 9.6901 16.6022 10.0365 17.0215 10.2734H17.4316C17.8418 10.1276 18.1836 9.8724 18.457 9.50781V9.30273C17.5 8.52799 16.7207 7.66211 16.1191 6.70508L16.0508 5.93945C16.2786 5.48372 16.625 5.1875 17.0898 5.05078L18.3887 4.8457C18.89 4.89128 19.3001 5.09635 19.6191 5.46094L19.6875 5.93945L19.209 6.07617L19.0723 5.80273L18.3203 5.66602L17.2266 6.14453L17.0898 6.62305L17.6367 7.52539L18.8672 8.55078C19.1862 8.91536 19.3685 9.32552 19.4141 9.78125L18.9355 10.4785C18.4342 10.9342 17.8418 11.1393 17.1582 11.0938ZM24.1582 11.0938C23.6022 10.957 23.1191 10.6335 22.709 10.123L22.4355 9.64453L22.5723 9.30273L23.0508 9.23438C23.2786 9.6901 23.6022 10.0365 24.0215 10.2734H24.4316C24.8418 10.1276 25.1836 9.8724 25.457 9.50781V9.30273C24.5 8.52799 23.7207 7.66211 23.1191 6.70508L23.0508 5.93945C23.2786 5.48372 23.625 5.1875 24.0898 5.05078L25.3887 4.8457C25.89 4.89128 26.3001 5.09635 26.6191 5.46094L26.6875 5.93945L26.209 6.07617L26.0723 5.80273L25.3203 5.66602L24.2266 6.14453L24.0898 6.62305L24.6367 7.52539L25.8672 8.55078C26.1862 8.91536 26.3685 9.32552 26.4141 9.78125L25.9355 10.4785C25.4342 10.9342 24.8418 11.1393 24.1582 11.0938ZM31.3633 11.1074L30.9531 10.6289V7.74414L31.0215 7.67578V6.02148L31.2266 5.74805H31.6367L31.9785 5.95312L32.1152 6.43164L31.9785 6.78711V7.60742L31.9102 7.8125L31.9785 8.08594L31.9102 8.1543V9.45312L31.8418 10.1504L31.9102 10.2188V10.9707C31.7734 11.1074 31.5911 11.153 31.3633 11.1074ZM31.8418 4.10742C31.5228 4.06185 31.2721 3.90234 31.0898 3.62891L30.8164 2.79492L31.2949 2.58984L31.8418 2.93164L31.9785 3.49219L32.1836 3.56055L32.252 3.76562C32.2064 3.99349 32.0697 4.10742 31.8418 4.10742ZM38.0352 11.1621C37.6159 11.1074 37.2467 10.9434 36.9277 10.6699L36.4492 9.84961V8.19531C36.6771 7.18359 37.1602 6.26302 37.8984 5.43359C38.2174 5.2513 38.582 5.16016 38.9922 5.16016L39.6895 5.57031C40.2819 6.39974 40.651 7.32031 40.7969 8.33203C40.651 9.20703 40.2135 9.94076 39.4844 10.5332C39.0651 10.8978 38.582 11.1074 38.0352 11.1621ZM38.582 10.0547C39.138 9.72656 39.5299 9.26628 39.7578 8.67383L39.8262 8.46875V7.63477L39.2109 6.11719H38.7188L38.0352 6.81445C37.8073 7.22461 37.5977 7.66211 37.4062 8.12695V8.94727L37.3379 9.42578L37.625 10.1914L37.9668 10.3281L38.582 10.0547ZM43.6133 10.957L43.2031 10.6152L43.1348 9.49414L43.2031 9.28906L43.1348 9.2207V7.63477L42.8477 5.76172C43.0846 5.52474 43.3626 5.45182 43.6816 5.54297C43.8184 5.82552 43.9141 6.1263 43.9688 6.44531V7.21094L44.0371 7.48438H44.3105L44.6523 7.00586C45.026 6.67773 45.4681 6.4681 45.9785 6.37695L46.6621 6.66406C47.0358 7.72135 47.4277 8.76042 47.8379 9.78125L48.1934 10.123V10.3965H47.4277L46.5254 9.49414C46.3887 8.75586 46.2292 8.04036 46.0469 7.34766L45.7598 7.2793C45.1582 7.69857 44.7207 8.23177 44.4473 8.87891L44.2422 9.84961V10.752C44.1055 10.9798 43.8958 11.0482 43.6133 10.957ZM54.5508 11.7773L54.1543 11.6543L53.6348 10.3418L53.375 10.2734C52.8919 10.7565 52.304 10.998 51.6113 10.998L50.9551 10.5469L50.627 9.30273L50.6953 9.23438V8.50977C50.8685 7.89909 51.1055 7.3112 51.4062 6.74609L50.3672 6.08984C50.194 5.87109 50.1074 5.61133 50.1074 5.31055V4.51758C50.4082 3.51497 50.9095 2.59896 51.6113 1.76953L52.3223 0.990234H52.582L52.9785 1.25L53.0469 1.71484L52.8555 1.76953C51.7617 2.81771 51.1283 4.06185 50.9551 5.50195L51.2148 5.83008H51.7344C52.1719 5.52018 52.6504 5.36523 53.1699 5.36523C53.4342 5.54753 53.5436 5.76628 53.498 6.02148C52.7142 6.63216 52.1491 7.375 51.8027 8.25L51.543 8.97461V9.82227L51.6113 10.1504H51.8711C52.4362 9.93164 52.9375 9.55794 53.375 9.0293L53.498 8.64648L53.7715 8.57812L54.2227 8.83789L54.3594 9.42578L54.291 9.63086L54.6191 10.6699L54.8105 10.7383L55.1387 11.6543L54.5508 11.7773ZM59.1582 11.0801L58.6797 10.6699C58.4154 9.76758 58.2148 8.84245 58.0781 7.89453V6.81445L57.9414 6.13086V5.46094C57.8047 4.33073 57.5996 3.24609 57.3262 2.20703C57.554 2.07943 57.8047 2.03841 58.0781 2.08398C58.4792 2.98633 58.7253 3.95247 58.8164 4.98242V5.73438L58.8848 5.80273V6.67773L58.9531 6.74609V7.89453L59.0215 8.37305H59.2266C59.6732 6.24935 60.2109 4.17578 60.8398 2.15234L61.1133 2.08398L61.7285 2.34375L61.7969 3.0957C60.8945 5.66602 60.1517 8.30469 59.5684 11.0117L59.1582 11.0801ZM66.3633 11.1074L65.9531 10.6289V7.74414L66.0215 7.67578V6.02148L66.2266 5.74805H66.6367L66.9785 5.95312L67.1152 6.43164L66.9785 6.78711V7.60742L66.9102 7.8125L66.9785 8.08594L66.9102 8.1543V9.45312L66.8418 10.1504L66.9102 10.2188V10.9707C66.7734 11.1074 66.5911 11.153 66.3633 11.1074ZM66.8418 4.10742C66.5228 4.06185 66.2721 3.90234 66.0898 3.62891L65.8164 2.79492L66.2949 2.58984L66.8418 2.93164L66.9785 3.49219L67.1836 3.56055L67.252 3.76562C67.2064 3.99349 67.0697 4.10742 66.8418 4.10742ZM73.1582 11.0938C72.6022 10.957 72.1191 10.6335 71.709 10.123L71.4355 9.64453L71.5723 9.30273L72.0508 9.23438C72.2786 9.6901 72.6022 10.0365 73.0215 10.2734H73.4316C73.8418 10.1276 74.1836 9.8724 74.457 9.50781V9.30273C73.5 8.52799 72.7207 7.66211 72.1191 6.70508L72.0508 5.93945C72.2786 5.48372 72.625 5.1875 73.0898 5.05078L74.3887 4.8457C74.89 4.89128 75.3001 5.09635 75.6191 5.46094L75.6875 5.93945L75.209 6.07617L75.0723 5.80273L74.3203 5.66602L73.2266 6.14453L73.0898 6.62305L73.6367 7.52539L74.8672 8.55078C75.1862 8.91536 75.3685 9.32552 75.4141 9.78125L74.9355 10.4785C74.4342 10.9342 73.8418 11.1393 73.1582 11.0938ZM80.3633 11.1074L79.9531 10.6289V7.74414L80.0215 7.67578V6.02148L80.2266 5.74805H80.6367L80.9785 5.95312L81.1152 6.43164L80.9785 6.78711V7.60742L80.9102 7.8125L80.9785 8.08594L80.9102 8.1543V9.45312L80.8418 10.1504L80.9102 10.2188V10.9707C80.7734 11.1074 80.5911 11.153 80.3633 11.1074ZM80.8418 4.10742C80.5228 4.06185 80.2721 3.90234 80.0898 3.62891L79.8164 2.79492L80.2949 2.58984L80.8418 2.93164L80.9785 3.49219L81.1836 3.56055L81.252 3.76562C81.2064 3.99349 81.0697 4.10742 80.8418 4.10742ZM87.0352 11.1621C86.6159 11.1074 86.2467 10.9434 85.9277 10.6699L85.4492 9.84961V8.19531C85.6771 7.18359 86.1602 6.26302 86.8984 5.43359C87.2174 5.2513 87.582 5.16016 87.9922 5.16016L88.6895 5.57031C89.2819 6.39974 89.651 7.32031 89.7969 8.33203C89.651 9.20703 89.2135 9.94076 88.4844 10.5332C88.0651 10.8978 87.582 11.1074 87.0352 11.1621ZM87.582 10.0547C88.138 9.72656 88.5299 9.26628 88.7578 8.67383L88.8262 8.46875V7.63477L88.2109 6.11719H87.7188L87.0352 6.81445C86.8073 7.22461 86.5977 7.66211 86.4062 8.12695V8.94727L86.3379 9.42578L86.625 10.1914L86.9668 10.3281L87.582 10.0547ZM92.6133 10.957L92.2031 10.6152L92.1348 9.49414L92.2031 9.28906L92.1348 9.2207V7.63477L91.8477 5.76172C92.0846 5.52474 92.3626 5.45182 92.6816 5.54297C92.8184 5.82552 92.9141 6.1263 92.9688 6.44531V7.21094L93.0371 7.48438H93.3105L93.6523 7.00586C94.026 6.67773 94.4681 6.4681 94.9785 6.37695L95.6621 6.66406C96.0358 7.72135 96.4277 8.76042 96.8379 9.78125L97.1934 10.123V10.3965H96.4277L95.5254 9.49414C95.3887 8.75586 95.2292 8.04036 95.0469 7.34766L94.7598 7.2793C94.1582 7.69857 93.7207 8.23177 93.4473 8.87891L93.2422 9.84961V10.752C93.1055 10.9798 92.8958 11.0482 92.6133 10.957Z" fill="#FF8A00"/>
</g>
<defs>
<clipPath id="clip0_34_6">
<rect width="98" height="12" fill="white"/>
</clipPath>
</defs>
</svg>
